# xmcd
# 
# Track frame offsets:
#     150
#     23782
#     40010
#     62427
#     79590
#     97500
#     116895
#     132870
#     149485
#     160355
# 
# Disc length: 2336
# 
# Revision: 4
# Processed by: cddbd v1.5.2PL0 Copyright (c) Steve Scherf et al.
# Submitted via: fre:ac v1.0.31
# 
DISCID=78091e0a
DTITLE=Columbia Blues - Z.Z. Hill Down Home
DYEAR=1981
DGENRE=Blues
TTITLE0=Down Home Blues
TTITLE1=Cheating In The Next Room
TTITLE2=Everybody Knows About My Good Thing
TTITLE3=Love Me
TTITLE4=That Means So Much To Me
TTITLE5=When Can We Do This Again
TTITLE6=Right Arm For Your Love
TTITLE7=When It Rains It Pours
TTITLE8=Woman Don't Go Astray
TTITLE9=Givin' It Up For Your Love
EXTD=Produced by: Tommy Couch and Wolf Stephenson\nEngineer: Wolf Stephenson\nRecorded and Mixed at: Malaco Studios, Jackson, Mississippi\nGuitars: Dino Zimmerman and Leroy Emmanuel\nBass: Ray Griffin\nKeyboards: Carson Whitsett\nDrums: James Robertson\nB
EXTD=ackground Vocals: Thomasine Anderson, Jewel Bass, Charlotte Chenault\nStrings: Ths Jackson Strings arranged by Mickey Davis\nHorns: The Muscle Shoals Horns\n\nManufactured and Distributed by: MALCO RECORDS and TAPES, 3023 W. Northside Drive, Jackson, M
EXTD=S 39213
EXTT0=
EXTT1=
EXTT2=
EXTT3=
EXTT4=
EXTT5=
EXTT6=
EXTT7=
EXTT8=
EXTT9=
PLAYORDER=
